<?xml version="1.0" encoding="UTF-8" standalone="no"?>
<!-- Created with Inkscape (http://www.inkscape.org/) -->

<svg
   xmlns:dc="http://purl.org/dc/elements/1.1/"
   xmlns:cc="http://creativecommons.org/ns#"
   xmlns:rdf="http://www.w3.org/1999/02/22-rdf-syntax-ns#"
   xmlns:svg="http://www.w3.org/2000/svg"
   xmlns="http://www.w3.org/2000/svg"
   xmlns:sodipodi="http://sodipodi.sourceforge.net/DTD/sodipodi-0.dtd"
   xmlns:inkscape="http://www.inkscape.org/namespaces/inkscape"
   width="210mm"
   height="297mm"
   id="svg3911"
   version="1.1"
   inkscape:version="0.48.4 r9939"
   sodipodi:docname="Neues Dokument 8">
  <defs
     id="defs3913" />
  <sodipodi:namedview
     id="base"
     pagecolor="#ffffff"
     bordercolor="#666666"
     borderopacity="1.0"
     inkscape:pageopacity="0.0"
     inkscape:pageshadow="2"
     inkscape:zoom="0.35"
     inkscape:cx="416.13895"
     inkscape:cy="481.53335"
     inkscape:document-units="px"
     inkscape:current-layer="layer1"
     showgrid="false"
     showguides="true"
     inkscape:guide-bbox="true"
     inkscape:window-width="1680"
     inkscape:window-height="987"
     inkscape:window-x="1432"
     inkscape:window-y="-8"
     inkscape:window-maximized="1">
    <sodipodi:guide
       orientation="0,1"
       position="523.25902,282.84271"
       id="guide4529" />
    <sodipodi:guide
       orientation="0,1"
       position="1302.8571,502.85714"
       id="guide4559" />
  </sodipodi:namedview>
  <metadata
     id="metadata3916">
    <rdf:RDF>
      <cc:Work
         rdf:about="">
        <dc:format>image/svg+xml</dc:format>
        <dc:type
           rdf:resource="http://purl.org/dc/dcmitype/StillImage" />
        <dc:title></dc:title>
      </cc:Work>
    </rdf:RDF>
  </metadata>
  <g
     inkscape:label="Ebene 1"
     inkscape:groupmode="layer"
     id="layer1">
    <path
       style="fill:#80b3ff;fill-opacity:1;stroke:#000000;stroke-width:9.18357944;stroke-miterlimit:4;stroke-dasharray:none"
       d="m 374.33437,890.67414 c 94.99888,-3.85706 170.1875,-53.91701 170.1875,-115.09375 0,-61.17674 -75.18862,-111.20544 -170.1875,-115.0625"
       id="path3809-2"
       inkscape:connector-curvature="0"
       sodipodi:nodetypes="csc" />
    <path
       style="fill:#80b3ff;fill-opacity:1;stroke:#000000;stroke-width:9.18357944;stroke-miterlimit:4;stroke-dasharray:none"
       d="m 185.76294,660.51789 c -3.90514,-0.15855 -7.84419,-0.25 -11.8125,-0.25 -100.504098,0 -181.9687583,51.62095 -181.9687583,115.3125 0,63.69155 81.4646603,115.3125 181.9687583,115.3125 3.96831,0 7.90736,-0.0602 11.8125,-0.21875"
       id="path2985-0-1"
       inkscape:connector-curvature="0"
       sodipodi:nodetypes="csssc" />
    <rect
       style="fill:#99ff55;fill-opacity:1;stroke:#000000;stroke-width:9.18357944;stroke-miterlimit:4;stroke-opacity:1;stroke-dasharray:none;stroke-dashoffset:0.65499997"
       id="rect3757-4-1"
       width="69.829056"
       height="103.68558"
       x="-807.32019"
       y="214.55396"
       transform="matrix(0,-1,1,0,0,0)" />
    <path
       style="fill:none;stroke:#000000;stroke-width:3.4000001;stroke-linecap:butt;stroke-linejoin:miter;stroke-miterlimit:4;stroke-opacity:1;stroke-dasharray:13.6, 3.4;stroke-dashoffset:0"
       d="m -45.665634,769.60775 642.874564,2.02031"
       id="path3823-1"
       inkscape:connector-curvature="0"
       sodipodi:nodetypes="cc" />
    <path
       style="fill:#ffffff;stroke:#000000;stroke-width:7.2;stroke-linecap:butt;stroke-linejoin:miter;stroke-opacity:1;stroke-miterlimit:4;stroke-dasharray:none"
       d="m 222.0941,1095.9634 8.10223,38.1279 8.10225,38.128 12.27838,-38.5649 12.27841,-38.5649 c -21.8777,-12.1549 -20.87871,-15.8306 -40.76127,0.8739 z"
       id="path3966"
       inkscape:connector-curvature="0"
       sodipodi:nodetypes="cccccc" />
    <path
       style="fill:#000000;fill-opacity:1;stroke:#000000;stroke-width:3.4000001;stroke-miterlimit:4;stroke-opacity:1;stroke-dasharray:none;stroke-dashoffset:0"
       d="m 231.19961,1090.4807 c 5.8e-4,2.5443 0.88275,5.0469 2.72209,7.0045 3.96338,4.2183 10.76207,4.2959 15.18366,0.1415 2.03437,-1.9114 3.19573,-4.4021 3.48761,-6.9216 -9.20043,-5.2903 -12.76486,-6.3243 -21.39336,-0.2244 z"
       id="path3968"
       inkscape:connector-curvature="0" />
    <path
       style="fill:#cccccc;stroke:#ff6600;stroke-width:3.20000005;stroke-linecap:butt;stroke-linejoin:miter;stroke-miterlimit:4;stroke-opacity:1;stroke-dasharray:12.8, 3.2;stroke-dashoffset:0"
       d="M 242.85714,1086.6479 171.5301,549.50504"
       id="path4485"
       inkscape:connector-curvature="0"
       sodipodi:nodetypes="cc" />
    <path
       style="fill:#cccccc;stroke:#ff6600;stroke-width:3.20000005;stroke-linecap:butt;stroke-linejoin:miter;stroke-miterlimit:4;stroke-opacity:1;stroke-dasharray:12.8, 3.2;stroke-dashoffset:0"
       d="M 403.63451,549.50504 244.28571,1089.505"
       id="path4487"
       inkscape:connector-curvature="0"
       sodipodi:nodetypes="cc" />
    <path
       style="fill:#80b3ff;fill-opacity:1;stroke:#000000;stroke-width:9.18357944;stroke-miterlimit:4;stroke-dasharray:none"
       d="m 1450.7371,890.95471 c 94.9989,-3.85706 170.1875,-53.91701 170.1875,-115.09375 0,-61.17674 -75.1886,-111.20544 -170.1875,-115.0625"
       id="path3809-2-4"
       inkscape:connector-curvature="0"
       sodipodi:nodetypes="csc" />
    <path
       style="fill:#80b3ff;fill-opacity:1;stroke:#000000;stroke-width:9.18357944;stroke-miterlimit:4;stroke-dasharray:none"
       d="m 864.16557,660.79846 c -3.9052,-0.15855 -7.8442,-0.25 -11.8125,-0.25 -100.5041,0 -181.9688,51.62095 -181.9688,115.3125 0,63.69155 81.4647,115.3125 181.9688,115.3125 3.9683,0 7.9073,-0.0602 11.8125,-0.21875"
       id="path2985-0-1-1"
       inkscape:connector-curvature="0"
       sodipodi:nodetypes="csssc" />
    <rect
       style="fill:#99ff55;fill-opacity:1;stroke:#000000;stroke-width:9.18357944;stroke-miterlimit:4;stroke-opacity:1;stroke-dasharray:none;stroke-dashoffset:0.65499997"
       id="rect3757-4-1-0"
       width="69.829056"
       height="103.68558"
       x="-807.60077"
       y="1163.6774"
       transform="matrix(0,-1,1,0,0,0)" />
    <path
       style="fill:none;stroke:#000000;stroke-width:3.4000001;stroke-linecap:butt;stroke-linejoin:miter;stroke-miterlimit:4;stroke-opacity:1;stroke-dasharray:13.6, 3.4;stroke-dashoffset:0"
       d="m 614.55427,769.51947 c 584.28573,0 1052.99653,0 1052.99653,0"
       id="path3823-1-4"
       inkscape:connector-curvature="0"
       sodipodi:nodetypes="cc" />
    <path
       style="fill:#cccccc;stroke:#ff6600;stroke-width:3.20000005;stroke-linecap:butt;stroke-linejoin:miter;stroke-miterlimit:4;stroke-opacity:1;stroke-dasharray:12.8, 3.2;stroke-dashoffset:0"
       d="M 1589.4284,1034.4008 672.68037,551.0266"
       id="path4485-8"
       inkscape:connector-curvature="0"
       sodipodi:nodetypes="cc" />
    <path
       style="fill:#cccccc;stroke:#ff6600;stroke-width:3.20000005;stroke-linecap:butt;stroke-linejoin:miter;stroke-miterlimit:4;stroke-opacity:1;stroke-dasharray:12.8, 3.2;stroke-dashoffset:0"
       d="m 1083.3467,553.14237 507.8675,480.14023"
       id="path4487-5"
       inkscape:connector-curvature="0"
       sodipodi:nodetypes="cc" />
    <path
       style="fill:#ffffff;stroke:#000000;stroke-width:7.2;stroke-linecap:butt;stroke-linejoin:miter;stroke-opacity:1;stroke-miterlimit:4;stroke-dasharray:none"
       d="m 1587.504,1057.8979 35.999,14.9484 35.9991,14.9484 -24.8014,-31.9829 -24.8014,-31.9828 c -22.418,11.1269 -24.879,8.2196 -22.3953,34.0689 z"
       id="path3966-2"
       inkscape:connector-curvature="0"
       sodipodi:nodetypes="cccccc" />
    <path
       style="fill:#000000;fill-opacity:1;stroke:#000000;stroke-width:3.4000001;stroke-miterlimit:4;stroke-opacity:1;stroke-dasharray:none;stroke-dashoffset:0"
       d="m 1588.1517,1047.2889 c 2.096,1.4424 4.6575,2.135 7.313,1.7301 5.722,-0.8723 9.6413,-6.4281 8.727,-12.4259 -0.4207,-2.7595 -1.8136,-5.1285 -3.7233,-6.7977 -9.5748,4.5779 -12.4478,6.9275 -12.3167,17.4935 z"
       id="path3968-5"
       inkscape:connector-curvature="0" />
  </g>
</svg>
